<?xml version="1.0" standalone="no"?>
<!DOCTYPE svg PUBLIC "-//W3C//DTD SVG 20010904//EN"
 "http://www.w3.org/TR/2001/REC-SVG-20010904/DTD/svg10.dtd">
<svg version="1.0" xmlns="http://www.w3.org/2000/svg"
 width="700.000000pt" height="700.000000pt" viewBox="0 0 700.000000 700.000000"
 preserveAspectRatio="xMidYMid meet">
<metadata>
Created by potrace 1.14, written by Peter Selinger 2001-2017
</metadata>
<g transform="translate(0.000000,700.000000) scale(0.100000,-0.100000)"
fill="#000000" stroke="none">
<path d="M690 6985 c-193 -42 -378 -157 -501 -312 -63 -80 -136 -220 -166
-318 -17 -57 -18 -199 -21 -2815 -2 -1970 0 -2773 8 -2820 55 -318 285 -578
610 -687 l85 -28 2795 0 2795 0 85 28 c290 97 490 297 587 587 l28 85 0 2785
c0 2681 -1 2788 -19 2855 -46 175 -163 355 -302 465 -81 64 -220 137 -319 167
-57 17 -198 18 -2830 20 -2342 1 -2780 -1 -2835 -12z m2458 -2217 c-4 -10 -37
-13 -123 -13 -86 0 -119 3 -122 13 -4 9 25 12 122 12 97 0 126 -3 123 -12z
m-114 -990 c9 -5 17 -36 21 -86 6 -58 12 -83 29 -100 21 -23 21 -30 26 -515
l5 -492 45 -3 c53 -4 68 -15 50 -37 -9 -11 -31 -15 -76 -15 l-64 0 0 -144 0
-145 43 -4 c23 -2 -16 -4 -88 -4 -71 0 -112 3 -90 6 l40 6 3 142 3 142 -73 3
c-65 3 -73 5 -73 23 0 17 8 20 49 23 l48 3 -3 494 -4 493 23 24 c19 21 22 35
22 96 0 61 3 74 20 84 19 12 20 25 22 238 l3 225 2 -225 c3 -179 6 -226 17
-232z m-2354 -172 c72 -27 118 -62 150 -119 56 -97 36 -224 -45 -296 -40 -35
-114 -71 -145 -71 -41 0 -27 -19 23 -34 137 -40 196 -136 197 -321 1 -103 13
-165 36 -182 22 -16 68 -17 96 -2 14 8 18 8 14 0 -4 -6 -32 -18 -63 -27 -76
-22 -155 -15 -188 16 -32 30 -55 106 -55 184 -1 163 -41 287 -107 327 -30 19
-51 23 -127 23 l-91 1 -3 -267 -2 -268 70 0 c40 0 70 -4 70 -10 0 -6 -33 -10
-80 -10 l-80 0 0 541 0 542 143 -6 c95 -3 157 -10 187 -21z m1144 18 c14 -5
16 -28 15 -153 -1 -139 -2 -144 -13 -91 -20 91 -37 130 -69 166 -51 59 -70 64
-232 64 l-145 0 0 -240 0 -240 91 0 c86 0 92 1 119 28 19 20 31 44 35 75 15
99 25 53 25 -113 0 -112 -3 -169 -10 -165 -5 3 -10 15 -10 25 0 39 -33 101
-61 115 -18 10 -57 15 -109 15 l-80 0 0 -270 0 -270 163 0 c142 0 166 2 193
19 54 33 85 85 111 183 13 51 26 94 28 97 3 3 4 -67 3 -155 l-3 -159 -387 -3
c-257 -1 -388 1 -388 8 0 6 28 10 65 10 l65 0 0 520 0 520 -70 0 c-40 0 -70 4
-70 10 0 11 706 15 734 4z m934 -6 c8 -8 12 -56 12 -153 0 -94 -3 -135 -10
-125 -5 8 -10 27 -10 41 0 48 -32 128 -67 169 -46 53 -81 62 -243 58 l-135 -3
-3 -237 -2 -238 90 0 c125 0 140 10 166 115 11 45 12 34 12 -125 0 -159 -1
-171 -13 -125 -24 102 -48 118 -171 113 l-79 -3 0 -265 0 -265 68 -3 c37 -2
67 -7 67 -12 0 -6 -82 -10 -205 -10 -130 0 -205 4 -205 10 0 6 28 10 65 10
l65 0 0 520 0 520 -70 0 c-40 0 -70 4 -70 10 0 15 722 14 738 -2z m1111 -400
c136 -224 249 -404 254 -399 4 4 6 182 5 397 l-3 389 -67 3 c-38 2 -68 7 -68
12 0 6 60 10 145 10 90 0 145 -4 145 -10 0 -6 -30 -10 -70 -10 l-70 0 0 -535
0 -535 -23 0 c-18 0 -37 24 -96 123 -41 67 -171 282 -289 477 -118 195 -224
370 -234 388 -11 17 -22 32 -24 32 -2 0 -4 -223 -4 -495 l0 -495 65 0 c37 0
65 -4 65 -10 0 -6 -53 -10 -140 -10 -87 0 -140 4 -140 10 0 6 28 10 65 10 l65
0 0 520 0 520 -65 0 c-38 0 -65 4 -65 10 0 7 53 10 152 8 l152 -3 245 -407z
m1235 406 c14 -5 16 -28 15 -153 l-1 -146 -14 67 c-14 73 -40 130 -75 167 -40
42 -78 51 -229 51 l-140 0 0 -240 0 -240 89 0 c105 0 134 16 151 83 24 95 29
80 28 -98 0 -172 -1 -178 -14 -130 -31 110 -51 125 -171 125 l-83 0 0 -270 0
-270 163 0 c147 0 165 2 197 21 60 37 88 88 115 207 9 40 21 70 26 66 12 -7
11 -271 -1 -295 -10 -18 -25 -19 -395 -19 -250 0 -385 4 -385 10 0 6 28 10 65
10 l65 0 0 520 0 520 -65 0 c-37 0 -65 4 -65 10 0 11 696 15 724 4z m831 -23
c217 -79 337 -281 321 -541 -15 -263 -146 -437 -371 -495 -46 -12 -119 -15
-322 -15 -160 0 -263 4 -263 10 0 5 30 10 68 12 l67 3 0 515 0 515 -67 3 c-39
2 -68 7 -68 13 0 7 92 9 288 7 265 -4 292 -6 347 -27z m735 -511 l0 -540 -125
0 c-77 0 -125 4 -125 10 0 6 30 10 70 10 l70 0 0 520 0 520 -70 0 c-40 0 -70
4 -70 10 0 6 48 10 125 10 l125 0 0 -540z m-1732 -831 c-3 -8 -7 -3 -11 10 -4
17 -3 21 5 13 5 -5 8 -16 6 -23z m1007 11 c3 -5 1 -10 -4 -10 -6 0 -11 5 -11
10 0 6 2 10 4 10 3 0 8 -4 11 -10z"/>
<path d="M2976 3579 l-26 -20 0 -255 0 -254 40 0 40 0 2 238 2 237 9 -237 c8
-190 13 -238 23 -238 12 0 14 46 14 254 l0 255 -26 20 c-15 12 -32 21 -39 21
-7 0 -24 -9 -39 -21z"/>
<path d="M370 3365 l0 -245 99 0 c113 0 153 11 197 52 43 41 57 96 52 214 -6
181 -52 224 -240 224 l-108 0 0 -245z"/>
<path d="M5580 3091 l0 -521 124 0 c175 0 244 29 307 129 56 87 71 158 76 352
6 211 -5 292 -53 389 -37 73 -70 107 -138 142 -35 19 -62 23 -178 26 l-138 4
0 -521z"/>
</g>
</svg>
